<svg width="1672" height="1495" xmlns="http://www.w3.org/2000/svg" xmlns:xlink="http://www.w3.org/1999/xlink" xml:space="preserve" overflow="hidden">
<g transform="translate(-1257 -452)">

<!--
User Application
-->
	<rect x="1264" y="459" width="1658" height="143" stroke="#F2F2F2" stroke-width="13.75" stroke-miterlimit="8" fill="#F2F2F2"/>
	<text fill="#0E2841" font-family="Yu Gothic,Yu Gothic_MSFontService,sans-serif" font-weight="400" font-size="73" transform="matrix(1 0 0 1 1813.55 553)">User Application</text>

<!--
EVK
-->
	<rect x="1264" y="1653" width="1658" height="143" stroke="#0E2841" stroke-width="13.75" stroke-miterlimit="8" fill="#0E2841"/>
	<text fill="#FFFFFF" font-family="Yu Gothic,Yu Gothic_MSFontService,sans-serif" font-weight="400" font-size="73" transform="matrix(1 0 0 1 2020.94 1747)">EVK</text>

<!--
CIP Linux Kernel
-->
	<rect x="1301" y="1417" width="559" height="167" fill="#F2F2F2"/>
	<text fill="#0E2841" font-family="Yu Gothic,Yu Gothic_MSFontService,sans-serif" font-weight="400" font-size="73" transform="matrix(1 0 0 1 1418.1 1480)">CIP Linux </text>
	<text fill="#0E2841" font-family="Yu Gothic,Yu Gothic_MSFontService,sans-serif" font-weight="400" font-size="73" transform="matrix(1 0 0 1 1469.93 1568)">Kernel</text>

<!--
HMI SDK  (Software Development Kit)
-->
	<rect x="1264" y="635" width="1658" height="984" stroke="#2D7FCF" stroke-width="13.75" stroke-miterlimit="8" fill="none"/>
	<rect x="1888" y="1414" width="999" height="168" fill="#F2F2F2"/>
	<text fill="#0E2841" font-family="Yu Gothic,Yu Gothic_MSFontService,sans-serif" font-weight="400" font-size="73" transform="matrix(1 0 0 1 2315.73 1521)">BSP</text>
	<text fill="#2D7FCF" font-family="Yu Gothic,Yu Gothic_MSFontService,sans-serif" font-weight="700" font-size="73" transform="matrix(1 0 0 1 1447.01 752)">HMI SDK </text>
	<text fill="#2D7FCF" font-family="Yu Gothic,Yu Gothic_MSFontService,sans-serif" font-weight="400" font-size="73" transform="matrix(1 0 0 1 1797.07 752)">(</text>
	<text fill="#2D7FCF" font-family="Yu Gothic,Yu Gothic_MSFontService,sans-serif" font-weight="400" font-size="73" transform="matrix(1 0 0 1 1825.14 752)">Software</text>
	<text fill="#2D7FCF" font-family="Yu Gothic,Yu Gothic_MSFontService,sans-serif" font-weight="400" font-size="73" transform="matrix(1 0 0 1 2149.41 752)">Development</text>
	<text fill="#2D7FCF" font-family="Yu Gothic,Yu Gothic_MSFontService,sans-serif" font-weight="400" font-size="73" transform="matrix(1 0 0 1 2617.48 752)">Kit)</text>

<!--
Linux Stacks & Libraries
-->
	<rect x="1301" y="1012" width="559" height="374" fill="#F2F2F2"/>
	<text fill="#0E2841" font-family="Yu Gothic,Yu Gothic_MSFontService,sans-serif" font-weight="400" font-size="73" transform="matrix(1 0 0 1 1488.56 1134)">Linux</text>
	<text fill="#0E2841" font-family="Yu Gothic,Yu Gothic_MSFontService,sans-serif" font-weight="400" font-size="73" transform="matrix(1 0 0 1 1467.37 1222)">Stacks</text>
	<text fill="#0E2841" font-family="Yu Gothic,Yu Gothic_MSFontService,sans-serif" font-weight="400" font-size="73" transform="matrix(1 0 0 1 1414.09 1310)">/Libraries </text>

<!--
Streaming
-->
	<rect x="1888" y="1216" width="999" height="170" fill="#F2F2F2"/>
	<text fill="#0E2841" font-family="Yu Gothic,Yu Gothic_MSFontService,sans-serif" font-weight="400" font-size="73" transform="matrix(1 0 0 1 2215.47 1324)">Streaming</text>

<!--
Graphics
-->
	<rect x="1888" y="1012" width="999" height="170" fill="#F2F2F2"/>
	<text fill="#0E2841" font-family="Yu Gothic,Yu Gothic_MSFontService,sans-serif" font-weight="400" font-size="73" transform="matrix(1 0 0 1 2237.81 1120)">Graphics</text>

<!--
HMI Framework
-->
	<rect x="1301" y="811" width="1586" height="170" fill="#F2F2F2"/>
	<text fill="#0E2841" font-family="Yu Gothic,Yu Gothic_MSFontService,sans-serif" font-weight="400" font-size="73" transform="matrix(1 0 0 1 1414 920)">HMI Framework (HTML5/LVGL/Flutter)</text>

</g>
</svg>
